#!OML:ASF H:\Punching\Project 1\Capture day 1\Session 1\female.ASF
:FULLY-SPECIFIED
:DEGREES
3065
root -0.858023 14.9845 3.91269 -13.7196 -36.3856 2.04928
lowerback 1.44255 0.466056 7.05342
upperback -0.702711 0.627069 -7.27628
thorax -1.39151 0.190296 -11.8324
lowerneck 1.63479 12.0228 18.0843
upperneck 41.567 19.3902 -9.5991
head 18.4436 9.64172 -4.60769
rclavicle 5.32743e-014 -6.36111e-015
rhumerus 14.616 38.5662 -75.0329
rradius 126.253
rwrist -14.85
rhand -29.1297 10.9399
rfingers 7.12502
rthumb -2.47694 -19.0255
lclavicle 5.32743e-014 -6.36111e-015
lhumerus -14.2188 -12.2609 63.9808
lradius 142.02
lwrist 3.4369
lhand -25.9243 4.34828
lfingers 7.12502
lthumb 0.61884 34.3271
rfemur -2.35668 8.97571 31.3138
rtibia 39.6021
rfoot -19.2883 -6.14403
rtoes 16.5653
lfemur -83.8769 9.22459 -17.9767
ltibia 101.982
lfoot 30.1185 3.16478
ltoes -8.4831
3066
root -0.838685 14.9933 3.87317 -13.1951 -35.6854 1.92946
lowerback 1.75191 0.499953 6.89013
upperback -0.689616 0.682796 -7.25505
thorax -1.54001 0.213259 -11.7145
lowerneck 1.11907 11.8703 17.8685
upperneck 41.3683 19.0817 -9.57517
head 18.3261 9.47403 -4.58403
rclavicle -1.59028e-014 3.81667e-014
rhumerus 14.9292 38.1503 -74.4936
rradius 126.473
rwrist -15.459
rhand -29.0375 11.0422
rfingers 7.12502
rthumb -2.3879 -18.9241
lclavicle -1.59028e-014 3.81667e-014
lhumerus -13.8183 -12.4966 63.8219
lradius 141.932
lwrist 3.43725
lhand -25.8302 4.23858
lfingers 7.12502
lthumb 0.709732 34.2171
rfemur -3.06506 8.6404 31.1589
rtibia 39.6352
rfoot -19.1723 -6.287
rtoes 16.4654
lfemur -85.0144 8.94409 -18.4886
ltibia 104.925
lfoot 30.246 2.30089
ltoes -8.97308
3067
root -0.818322 15.004 3.83283 -12.6201 -34.982 1.80518
lowerback 2.02361 0.536729 6.73952
upperback -0.696252 0.740423 -7.2141
thorax -1.68799 0.23669 -11.5824
lowerneck 0.610188 11.7142 17.6369
upperneck 41.1893 18.7737 -9.54795
head 18.2197 9.305 -4.55769
rclavicle -1.16488e-013 -1.27222e-014
rhumerus 15.2313 37.7516 -73.9479
rradius 126.661
rwrist -15.953
rhand -28.9521 11.1798
rfingers 7.12502
rthumb -2.30548 -18.7875
lclavicle -1.16488e-013 -1.27222e-014
lhumerus -13.4784 -12.7584 63.7197
lradius 141.864
lwrist 3.41254
lhand -25.7511 4.19523
lfingers 7.12502
lthumb 0.786162 34.1735
rfemur -3.82896 8.28234 30.9924
rtibia 39.6565
rfoot -19.0437 -6.38551
rtoes 16.3898
lfemur -86.148 8.68261 -18.966
ltibia 107.78
lfoot 30.4614 1.34931
ltoes -9.58798
3068
root -0.79717 15.0164 3.79195 -12.0127 -34.2753 1.68937
lowerback 2.26257 0.580703 6.59792
upperback -0.717107 0.806027 -7.16258
thorax -1.83085 0.264109 -11.4445
lowerneck 0.101966 11.5535 17.4036
upperneck 41.0267 18.4624 -9.51878
head 18.1251 9.13493 -4.53161
rclavicle 2.50469e-014 9.54166e-015
rhumerus 15.5184 37.35 -73.404
rradius 126.818
rwrist -16.284
rhand -28.867 11.3062
rfingers 7.12502
rthumb -2.22331 -18.662
lclavicle 2.50469e-014 9.54166e-015
lhumerus -13.1874 -13.0641 63.6721
lradius 141.82
lwrist 3.35576
lhand -25.6921 4.23589
lfingers 7.12502
lthumb 0.843129 34.214
rfemur -4.63357 7.91865 30.8142
rtibia 39.6679
rfoot -18.9085 -6.46544
rtoes 16.3512
lfemur -87.2542 8.43852 -19.4182
ltibia 110.543
lfoot 30.7446 0.395937
ltoes -10.2477
3069
root -0.775558 15.0303 3.75034 -11.3871 -33.5631 1.59418
lowerback 2.47242 0.631562 6.4525
upperback -0.746097 0.879042 -7.10586
thorax -1.96456 0.295777 -11.2991
lowerneck -0.421106 11.3913 17.16
upperneck 40.8855 18.146 -9.47145
head 18.0447 8.96262 -4.49624
rclavicle -3.18055e-014 -1.11319e-014
rhumerus 15.7975 36.9451 -72.8651
rradius 126.929
rwrist -16.3928
rhand -28.831 11.4401
rfingers 7.12502
rthumb -2.18848 -18.5285
lclavicle -3.18055e-014 -1.11319e-014
lhumerus -12.915 -13.4167 63.6618
lradius 141.793
lwrist 3.2647
lhand -25.6665 4.36683
lfingers 7.12502
lthumb 0.867894 34.3448
rfemur -5.4708 7.56134 30.6217
rtibia 39.6741
rfoot -18.7683 -6.54707
rtoes 16.3578
lfemur -88.309 8.20851 -19.8557
ltibia 113.2
lfoot 31.0788 -0.492863
ltoes -10.9215
